Coordinates
version=1
nRows=12
nColumns=24
inDegrees=yes

Units are S.I. units (second, meters, Newtons, ...)
Angles are in degrees.

endheader
time	pelvis_tilt	pelvis_list	pelvis_rotation	pelvis_tx	pelvis_ty	pelvis_tz	hip_flexion_r	hip_adduction_r	hip_rotation_r	knee_angle_r	ankle_angle_r	subtalar_angle_r	mtp_angle_r	hip_flexion_l	hip_adduction_l	hip_rotation_l	knee_angle_l	ankle_angle_l	subtalar_angle_l	mtp_angle_l	lumbar_extension	lumbar_bending	lumbar_rotation
      0.44800000	     -2.17677972	     -0.96249347	      4.83164357	     -0.76097435	      0.89303772	      0.29921970	     29.70980839	      3.15956126	     -6.43197994	    -17.54937584	      2.22060471	      0.12002747	      3.81944723	    -13.77211413	      0.83563482	     -0.62172764	    -10.46711591	     17.78678704	      3.06797366	      7.72554219	     -8.40715745	     -0.70781395	     -7.35323538
      0.45216667	     -2.22637525	     -0.97260327	      4.91307912	     -0.75487988	      0.89191208	      0.29926520	     29.62147212	      3.28362621	     -6.21317721	    -17.24182153	      2.08450096	     -0.20067153	      3.76363841	    -13.70754453	      0.74184524	     -0.61424761	    -11.38336659	     17.92677728	      3.27425180	      7.79963367	     -8.29901566	     -0.65951529	     -7.35813312
      0.45633333	     -2.24899015	     -1.00113967	      4.97520839	     -0.74875650	      0.89084237	      0.29935234	     29.52354171	      3.43493141	     -5.99257371	    -17.07663625	      1.94306481	     -0.58429691	      3.70442608	    -13.61935869	      0.61295452	     -0.74587744	    -12.40434931	     18.06083517	      3.64255610	      7.96198798	     -8.23946953	     -0.56170225	     -7.34748962
      0.46050000	     -2.30313732	     -1.02094068	      5.04583543	     -0.74261870	      0.88978927	      0.29944010	     29.45880110	      3.56862278	     -5.78108012	    -17.00322072	      1.76284064	     -0.97886075	      3.66914421	    -13.47214736	      0.49820975	     -0.78736534	    -13.47577288	     18.13546098	      3.90318600	      8.13945862	     -8.11749370	     -0.50537042	     -7.30897815
      0.46466667	     -2.32528746	     -1.06907904	      5.09642279	     -0.73644960	      0.88880280	      0.29957295	     29.38640970	      3.74092795	     -5.57941149	    -17.07524611	      1.56355194	     -1.46352951	      3.64004952	    -13.32120557	      0.33870816	     -0.92806705	    -14.62633688	     18.18863002	      4.29739945	      8.46010533	     -8.05132274	     -0.37861619	     -7.26133210
      0.46883333	     -2.34428598	     -1.13118091	      5.16070483	     -0.73026175	      0.88787995	      0.29971519	     29.29872450	      3.92267551	     -5.38321768	    -17.20230380	      1.35414874	     -1.95717063	      3.62828072	    -13.12544706	      0.15216245	     -1.06327036	    -15.86907535	     18.22292987	      4.70141026	      9.02964723	     -7.97179429	     -0.25819037	     -7.18648335
      0.47300000	     -2.44720473	     -1.14301269	      5.21413302	     -0.72411820	      0.88688191	      0.29982616	     29.36339298	      4.03194162	     -5.22050301	    -17.53929456	      1.14365013	     -2.39111303	      3.62780878	    -12.82826318	      0.05789437	     -1.01170033	    -17.12346455	     18.10180235	      4.76392437	      9.21479481	     -7.80035557	     -0.18511919	     -7.09853604
      0.47716667	     -2.44014553	     -1.23529774	      5.24943888	     -0.71788369	      0.88608511	      0.30006641	     29.26591666	      4.26329111	     -4.99861773	    -17.84139554	      0.88848080	     -3.02525483	      3.66075708	    -12.57037479	     -0.18807767	     -1.28433822	    -18.53549017	     18.00126871	      5.34245061	     10.01523995	     -7.74571639	     -0.02491415	     -6.98773074
      0.48133333	     -2.52930672	     -1.26865891	      5.27532389	     -0.71170190	      0.88518979	      0.30025907	     29.34333376	      4.40095150	     -4.84749092	    -18.35764835	      0.66549448	     -3.46431195	      3.93191062	    -12.19290748	     -0.33258540	     -1.38149621	    -19.95660161	     17.66039675	      5.48034059	     14.84206390	     -7.57454409	      0.06489522	     -6.86538934
      0.48550000	     -2.60835575	     -1.29299812	      5.29633224	     -0.70554178	      0.88435343	      0.30047284	     29.43010962	      4.53585730	     -4.66021698	    -18.97712972	      0.54999444	     -3.97792899	      3.92972756	    -11.79842179	     -0.45588313	     -1.38778677	    -21.43089074	     17.37805796	      5.59175570	     14.89635850	     -7.43428284	      0.15322957	     -6.74152305
      0.48966667	     -2.63805190	     -1.36481864	      5.29109080	     -0.69935172	      0.88362038	      0.30077834	     29.45760095	      4.73767205	     -4.47195314	    -19.60966099	      0.34457331	     -4.52260592	      3.93228703	    -11.38372458	     -0.67377714	     -1.61768684	    -23.04733300	     17.07176213	      5.98814017	     15.11977583	     -7.34349875	      0.28083068	     -6.57839179
      0.49383333	     -2.71704065	     -1.41506558	      5.31144359	     -0.69318168	      0.88289716	      0.30101896	     29.55853771	      4.88966763	     -4.31378088	    -20.34183776	      0.34003303	     -4.94881487	      3.93666163	    -10.88411885	     -0.84224607	     -1.65404527	    -24.68904840	     16.57350874	      6.13428167	     15.26319411	     -7.18653368	      0.40847191	     -6.42691605
